<svg width="241" height="327" viewBox="0 0 241 327" fill="none" xmlns="http://www.w3.org/2000/svg">
<path d="M118.385 46.5143L112.842 39.404C116.938 39.1751 120.829 38.8558 124.699 40.2988C130.954 42.5421 136.601 46.249 141.185 51.1202C142.141 52.1401 143.233 53.021 144.277 53.9645C146.421 56.9126 148.878 59.6736 150.646 62.8368C158.817 77.6241 164.697 93.6023 168.081 110.209C171.296 125.519 174.477 140.808 172.176 156.611L160.865 162.077L160.183 152.74L159.439 152.622C158.988 153.975 158.265 155.299 158.141 156.68C157.739 161.258 155.411 163.617 150.469 163.499V155.258L149.37 155.029C148.755 157.11 147.779 159.191 147.608 161.348C147.37 164.317 146.059 165.663 143.267 165.968C142.116 166.201 140.988 166.536 139.895 166.967V159.85L139.028 159.607C138.159 162.137 137.296 164.68 136.44 167.238H132.659C133.062 163.499 133.464 159.725 133.867 155.945C137.793 148.095 139.674 139.354 139.328 130.555C139.377 129.567 139.183 128.582 138.762 127.69C135.041 121.836 131.13 115.71 125.17 112.374C119.423 109.148 112.658 107.795 106.33 105.638C105.742 105.475 105.144 105.35 104.541 105.263C104.937 102.69 105.162 100.172 105.743 97.7436C106.733 93.5814 111.163 91.424 116.508 92.4299C118.651 92.8321 120.747 93.4495 123.334 94.0809C121.791 90.328 118.624 90.4044 116.043 89.4818C120.262 85.8746 125.457 85.7081 130.788 88.7534C136.516 92.0205 140.209 97.1331 143.472 102.683L144.066 103.307C144.066 102.953 144.018 102.613 143.997 102.253C141.881 94.74 138.086 88.4965 131.164 84.5981C133.669 83.3287 136.058 83.1136 139.922 84.1818C142.844 84.9934 145.684 86.1034 148.564 87.0816L149.083 86.1521C148.567 85.5362 148.006 84.9609 147.404 84.4316C141.69 80.0613 133.246 79.7492 127.102 83.5507C126.32 83.935 125.447 84.0887 124.583 83.9944C120.685 83.7864 117.422 85.1322 114.296 87.4629C111.641 89.4746 108.562 90.9314 105.661 92.6101C105.026 90.1547 104.63 87.5184 103.674 85.1184C100.043 75.9477 91.9261 71.5011 83.2292 72.4029C82.8264 72.3912 82.4263 72.4769 82.0621 72.6526C77.2018 76.1629 72.8259 73.0271 67.8837 71.6745C70.3413 62.7882 76.4031 57.8006 83.987 53.8603C91.7214 49.8509 99.5715 50.7804 107.606 52.5564C107.708 52.1192 107.818 51.6824 107.92 51.2453L96.1039 45.9315C98.93 42.0053 102.466 40.4376 107.094 42.0399C110.821 43.337 114.31 45.3488 117.907 47.0484L118.76 47.6935L118.385 46.5143Z" fill="#D2C9EA"/>
<path d="M77.1065 229.905C68.553 220.721 58.2725 213.791 48.0126 206.833C40.2781 201.575 36.9127 196.025 36.9059 188.291C46.5039 188.804 66.9897 197.426 76.8402 202.803C76.4898 202.237 76.0723 201.718 75.5978 201.256C66.0954 194.124 56.4839 187.125 47.0704 179.89C41.3977 175.534 35.964 170.872 30.496 166.224C29.9226 165.566 29.5691 164.74 29.4857 163.866C27.9568 155.43 28.3118 146.988 29.4857 138.546C29.5814 137.852 29.5542 137.117 29.5882 136.402C30.1309 136.559 30.6567 136.771 31.1581 137.033C35.8502 140.072 40.524 143.126 45.1796 146.197C45.7847 151.123 46.3901 156.05 46.9955 160.98L47.8145 160.862C48.3607 156.769 48.9045 152.672 49.4459 148.57C50.8589 150.165 52.3541 151.698 53.6578 153.377C54.7434 154.764 55.6033 156.332 56.5657 157.823C56.8866 158.413 57.2076 159.01 57.5353 159.599L57.9106 160.224C66.43 178.156 78.772 192.522 96.0974 202.081C100.63 204.578 103.517 208.546 106.644 212.383C110.364 216.94 114.105 221.477 117.757 226.083C118.51 227.126 119.109 228.276 119.532 229.496C121.58 234.699 123.321 240.019 125.58 245.118C126.645 247.525 128.604 249.523 130.161 251.708C128.488 253.533 126.823 255.357 125.034 257.299C117.375 246.395 107.709 237.876 97.9335 229.441L97.1145 229.211L97.5785 229.801C102.889 237.085 108.419 244.223 113.443 251.708C117.157 257.258 120.269 263.21 123.525 269.05C124.857 271.409 125.334 273.83 122.57 275.765L129.915 283.139C127.649 285.255 125.403 287.392 123.089 289.473C121.812 290.631 120.467 291.7 118.843 293.066C88.2948 274.114 64.143 248.808 45.944 217.592L46.8998 216.205L76.4784 230.377L78.0552 231.674L78.7379 230.883L77.1065 229.905Z" fill="#D2C9EA"/>
<path d="M121.893 162.106C121.695 168.849 123.723 174.745 128.583 179.746C124.528 185.372 125.17 191.345 128.023 198.06C121.975 195.764 117.859 192.365 115.811 187.037C113.9 182.063 112.657 176.819 110.78 171.776C110.719 182.736 113.736 193.073 117.668 204.171C114.48 203.034 111.695 202.25 109.101 201.05C106.746 199.954 104.745 197.901 102.329 197.151C98.0625 195.826 97.4276 192.642 97.1204 188.959C96.965 186.341 96.495 183.753 95.7211 181.252C94.0416 183.943 92.2257 186.559 90.7308 189.354C89.3656 191.921 87.8298 192.441 85.5837 190.54C83.1945 188.529 80.86 186.441 78.3751 184.568C75.8903 182.695 76.0678 180.822 77.5971 178.387C79.3513 175.612 80.7509 172.567 82.3074 169.646L81.5152 169.084C78.9076 172.241 76.3 175.397 73.1805 179.185C70.0882 174.571 67.0778 170.167 64.2652 165.706C63.9511 165.2 64.552 163.833 65.0639 163.119C67.1119 160.288 69.2417 157.569 70.9688 154.427C67.2075 155.453 65.5076 159.088 62.6269 161.058C61.4732 157.687 60.3811 154.357 59.1658 151.069C58.6131 149.571 58.6881 148.523 59.9442 147.316C68.4137 139.031 78.3814 132.489 89.2975 128.053C91.3999 127.213 93.7344 127.282 95.243 129.634C94.7124 129.896 94.2128 130.22 93.755 130.598C87.3451 137.223 85.0856 145.367 86.0412 154.364C86.2461 156.341 87.9732 158.742 89.6865 159.851C94.3353 162.876 99.4277 164.791 105.182 164.777C110.937 164.763 116.589 164.652 121.893 162.106Z" fill="#643FB0"/>
<path d="M172.129 156.606C174.443 140.804 171.262 125.515 168.033 110.205C164.662 93.603 158.795 77.6272 150.639 62.8396C148.871 59.6763 146.414 56.9153 144.27 53.9673C144.168 53.3776 144.236 52.6493 143.922 52.219C141.601 49.0558 139.205 45.9758 136.83 42.8263C138.959 42.0827 141.275 42.1072 143.389 42.8955C145.502 43.6842 147.284 45.1883 148.434 47.155C150.331 50.2648 152.501 53.1926 154.92 55.9026C153.964 53.8261 153.013 51.7452 152.066 49.6594C155.67 52.4756 159.336 55.2089 162.852 58.1501C163.951 59.0727 164.66 60.4948 165.548 61.6881L166.231 61.2996C165.412 59.4335 164.592 57.5605 163.794 55.7152C168.36 56.0345 172.258 61.1262 177.064 73.5503V67.6953C184.573 70.9558 182.983 77.8232 183.781 83.6919C182.136 84.9198 180.764 85.2388 178.709 84.0458C175.405 82.1173 172.422 84.6146 172.176 89.1722C173.084 88.1803 173.828 87.0217 174.873 86.3557C175.304 86.094 175.784 85.9269 176.283 85.8645C176.781 85.8024 177.287 85.8469 177.767 85.9949C178.272 86.2241 178.45 87.6945 178.45 88.5963C178.361 92.0648 178.129 95.5332 177.945 99.0017L178.887 99.085C179.433 96.1784 179.849 93.244 180.552 90.3792C181.406 86.9107 182.969 86.2169 185.72 87.3824C185.365 91.4683 184.989 95.3808 184.682 99.2933C184.437 102.442 184.218 105.592 184.095 108.748C184.143 109.74 184.284 110.725 184.518 111.69C184.17 112.508 183.488 113.341 183.535 114.131C183.843 119.847 184.293 125.556 184.703 131.266C183.501 140.367 183.46 149.413 186.75 158.118C188.566 162.933 189.891 167.712 189.597 172.964C189.345 177.528 189.365 177.771 184.819 178.707C182.279 173.158 180.204 171.271 175.767 172.055C169.582 173.158 163.93 171.104 158.101 169.974C158.565 166.172 159.889 163.328 164.347 163.106C166.285 163.016 168.183 162.093 170.115 161.635C173.767 160.762 178.743 164.903 178.429 168.85L181.16 166.699L183.46 172.533C183.386 172.549 183.314 172.577 183.249 172.617C183.214 172.651 183.214 172.728 183.208 172.79L183.467 172.54L185.945 173.595C185.856 172.082 185.713 170.328 185.658 168.566C185.714 166.883 185.519 165.201 185.078 163.578C184.641 164.833 184.198 166.089 183.645 167.664C180.307 164.292 182.341 160.165 181.351 156.086C180.668 158.424 180.068 160.248 179.364 162.593L172.129 156.606Z" fill="#643FB0"/>
<path d="M21.1495 53.1656C21.1495 51.6951 21.1495 50.2243 21.1495 48.7539L21.4567 47.2622C22.5867 40.2056 25.399 33.5372 29.6483 27.8389C33.6621 22.4489 39.3554 19.5908 45.9222 18.585L46.6049 18.4324H52.3117L53.6223 18.6683L58.0116 19.577C57.9638 19.7851 57.9091 19.9932 57.8548 20.2013C49.3694 20.458 40.9391 28.9626 39.7307 38.4663L39.4645 41.6713C37.6349 52.5276 42.4749 60.4009 50.3865 66.8315C52.5499 68.6576 54.9086 70.2305 57.4179 71.5207C61.1108 73.3104 63.1791 76.328 64.9268 79.8452C66.2245 82.4227 67.7507 84.8748 69.4868 87.1706C70.0464 83.1749 68.1625 80.0531 66.1623 76.7028C69.4118 77.2647 72.6406 77.6532 74.4289 81.0035C75.9991 83.9379 77.5078 86.914 79.3167 90.4031C79.9992 85.9428 78.4771 82.5784 76.5863 79.3042C82.5934 78.6104 84.8666 82.2523 87.8836 91.0205C89.5629 88.1141 88.7301 84.5902 85.0782 79.3457C85.7606 79.1446 86.4434 78.7005 87.0715 78.8047C96.8399 80.4972 103.243 93.7815 98.3485 102.48C97.7751 103.5 95.6181 104.333 94.4028 104.131C79.9857 101.794 65.862 98.5402 53.7725 89.4667C47.3149 84.6107 40.5432 80.1436 36.0788 73.0816C30.9233 66.2135 27.5713 58.126 26.3376 49.5792L22.3713 60.5674L21.3748 55.205L21.1495 53.1656Z" fill="#D2C9EA"/>
<path d="M222.341 82.8892C222.266 83.1181 222.197 83.3538 222.122 83.5827L221.849 84.11L220.934 86.0662C220.252 87.0443 219.569 88.0365 218.832 89.0006C215.269 93.8216 211.268 98.1435 205.07 99.1148C202.128 99.5794 199.083 99.4129 196.086 99.5379C192.08 92.8853 186.325 87.1762 184.953 77.839C186.83 78.6575 188.366 78.8658 189.131 79.7538C191.499 82.4661 193.581 85.442 195.773 88.314L196.592 87.9114L191.847 77.1593C195.472 75.1544 195.479 75.1475 198.544 78.3663C200.558 80.4472 202.531 82.6186 204.524 84.7482L204.975 85.1853C204.975 84.9287 204.975 84.665 204.975 84.4083L198.797 73.5798C199.705 71.7832 201.377 71.4988 203.712 73.3578C206.251 75.3904 208.968 77.2007 211.61 79.1015L212.231 78.4981C209.937 76.0979 207.643 73.6908 205.336 71.3114C204.654 70.6177 203.93 69.9863 203.227 69.3274C207.896 65.0196 211.514 59.921 211.132 53.303C210.674 45.3948 206.162 39.1447 201.575 33.0889L196.387 26.0686L197.158 25.4928C207.671 35.1699 217.316 45.4989 221.153 60.1776C221.248 60.4065 221.337 60.6285 221.433 60.8714C221.542 61.4678 221.651 62.0643 221.754 62.6539C221.849 62.89 221.938 63.1257 222.027 63.3477C222.109 63.9236 222.197 64.5063 222.286 65.0819L222.689 66.3029L222.935 68.1273L223.283 69.3967C223.378 70.2014 223.474 71.013 223.576 71.8178C223.658 72.0884 223.74 72.3519 223.829 72.6225V77.0969C223.726 77.5684 223.631 78.0401 223.535 78.4841C223.446 79.0809 223.358 79.6842 223.276 80.2879C223.174 80.5027 223.071 80.7179 222.975 80.933L222.627 82.0776L222.341 82.8892Z" fill="#D2C9EA"/>
<path d="M97.932 229.444C107.707 237.872 117.373 246.398 125.033 257.303C126.821 255.36 128.487 253.536 130.159 251.711C130.262 251.711 130.398 251.67 130.453 251.711C134.603 255.728 139.211 255.18 144.221 253.612C149.341 251.982 154.502 253.126 160.093 254.583C158.727 255.887 157.622 256.935 156.529 257.989C148.169 266.087 139.805 274.18 131.436 282.269C130.968 282.62 130.456 282.908 129.914 283.122L122.568 275.748C125.333 273.813 124.855 271.391 123.524 269.033C120.24 263.213 117.155 257.24 113.442 251.691C108.417 244.205 102.888 237.067 97.577 229.784C97.693 229.687 97.8092 229.562 97.932 229.444Z" fill="#643FB0"/>
<path d="M184.561 185.249C185.169 189.015 182.964 191.353 180.868 193.289C179.421 192.657 177.68 191.367 177.155 191.762C175.5 192.94 174.191 194.551 173.366 196.424C173.004 197.36 174.417 199.011 175.202 200.711C175.885 198.561 176.342 197.243 176.902 195.494C180.595 200.115 180.247 201.904 175.079 207.884C172.758 205.893 170.485 203.84 168.096 201.932C164.895 199.365 161.611 199.435 157.713 200.822C151.904 202.903 145.808 204.131 139.814 205.678C137.555 206.254 135.835 205.22 134.865 203.174C130.913 194.808 129.493 191.443 138.142 184.208C138.715 185.485 139.205 186.799 139.61 188.141C140.115 190.313 140.231 192.588 140.811 194.731C142.176 199.74 148.648 201.46 152.327 197.888C155.112 196.819 157.106 193.663 156.143 190.992C155.727 189.869 153.877 188.738 152.6 188.641C151.051 188.509 149.406 189.459 147.631 190.028C144.688 187.947 142.654 182.807 143.664 179.241C143.774 178.86 144.832 178.756 145.453 178.548C145.61 179.019 145.631 179.734 145.945 179.935C150.006 182.363 154.136 184.673 158.184 187.08C162.014 189.355 166.048 190.549 170.472 189.362C175.175 188.01 179.858 186.594 184.561 185.249Z" fill="#643FB0"/>
<path d="M127.221 156.491C127.05 156.72 126.887 156.956 126.723 157.185L126.19 157.803L123.747 159.19C123.147 159.132 122.546 159.109 121.944 159.121C113.336 159.648 106.838 155.749 101.39 149.312C97.977 145.274 97.5743 140.516 97.4718 135.59C97.7858 133.814 98.1067 132.046 98.2911 131.026L107.356 128.203C107.807 128.66 108.442 129.035 108.681 129.59C111.766 136.763 116.92 140.876 124.777 141.383C125.678 141.438 127.214 142.77 127.248 143.554C127.446 147.869 127.269 152.198 127.221 156.491Z" fill="#D2C9EA"/>
<path d="M22.3749 60.5667L26.3412 49.5785C27.5749 58.125 30.9269 66.2125 36.0824 73.0809C36.287 74.3574 36.1505 75.8556 36.7648 76.8755C40.7174 83.7498 46.5198 88.7168 53.3121 92.4419C64.1045 98.3521 75.1562 103.583 87.5119 105.261C89.8892 105.521 92.2267 106.071 94.4749 106.899C90.8295 108.452 87.2866 110.409 83.4981 111.408C81.4842 111.935 78.9994 110.984 76.8083 110.402C72.0842 109.139 67.4083 107.689 62.7118 106.316C61.3056 104.838 60.1657 102.695 58.4521 102.008C49.9876 98.6018 44.1646 91.9701 38.0347 85.6851C36.4099 84.0136 34.8331 82.2793 33.0719 80.7739C31.9045 79.7749 30.4643 79.2062 30.1228 81.6688C26.184 77.9783 25.2147 72.7893 23.6379 67.9682C22.8664 65.6098 22.7708 63.043 22.3749 60.5667Z" fill="#643FB0"/>
<path d="M152.063 227.811C152.309 231.759 152.555 235.706 152.821 240.104C150.773 240.203 148.721 240.171 146.677 240.006C145.994 239.923 145.209 238.841 144.916 238.043C144.035 235.664 143.38 233.188 142.636 230.773L141.906 230.975C141.906 232.737 142.022 234.513 141.871 236.261C141.755 237.565 141.455 239.875 140.957 239.951C138.909 240.277 136.178 240.707 134.813 239.639C132.567 237.907 130.886 235.529 129.987 232.813C127.604 224.634 125.816 216.282 124.096 207.84C128.799 210.955 133.53 212.835 139.114 212.599C140.267 212.55 141.523 214.881 142.732 216.109L143.1 216.636C143.278 216.886 143.455 217.136 143.626 217.392L147.203 222.366L152.063 227.811Z" fill="#D2C9EA"/>
<path d="M121.886 162.107C116.582 164.652 110.964 164.763 105.21 164.777C99.4549 164.791 94.3625 162.877 89.7137 159.852C88.0004 158.742 86.3005 156.342 86.0684 154.365C85.1128 145.347 87.3723 137.224 93.7822 130.599C94.2403 130.221 94.7395 129.897 95.2705 129.635C95.093 132.264 94.5878 134.935 94.8403 137.515C95.1612 140.47 96.2055 143.335 96.9429 146.242C97.9872 147.948 98.7518 149.967 100.138 151.32C106.575 157.598 113.92 161.725 123.279 160.213L121.886 162.107Z" fill="#D2C9EA"/>
<path d="M158.066 169.965C163.896 171.103 169.548 173.156 175.732 172.046C180.17 171.263 182.245 173.163 184.784 178.699L182.504 182.327C177.31 182.327 171.527 182.466 165.753 182.258C163.39 182.077 161.062 181.576 158.83 180.766C155.886 179.814 152.998 178.688 150.182 177.395C145.512 175.237 141 176.257 136.631 178.089C134.583 178.928 132.849 179.053 130.959 178.089C131.443 177.457 131.812 176.611 132.447 176.236C133.082 175.862 134.167 175.924 134.972 175.619C139.28 173.989 143.567 172.303 147.861 170.631L149.608 170.007L156.284 170.125L158.066 169.965Z" fill="#D2C9EA"/>
<path d="M41.6681 111.648C43.7979 110.857 45.9549 109.373 48.0576 109.456C50.3443 109.546 52.6176 110.996 54.8293 112.002C58.492 113.608 62.0176 115.519 65.3692 117.718L57.0136 119.216L56.8567 119.702C60.3246 120.534 63.765 121.623 67.2806 122.074C68.8846 122.282 70.8098 121.526 72.2978 120.687C76.3322 118.418 77.1581 118.363 80.2163 121.915C81.4931 123.392 82.4077 125.196 83.8823 127.464C80.6191 128.04 78.0321 128.595 75.4107 128.928C73.8271 129.122 72.1681 128.748 70.6323 129.011C62.4407 130.399 56.0649 126.93 50.3306 121.54C47.2792 118.654 44.1869 115.824 41.1084 112.966L41.6681 111.648Z" fill="#643FB0"/>
<path d="M134.717 143.352C134.457 141.868 133.747 140.293 134.034 138.913C135.311 132.378 131.126 128.507 127.713 124.019C124.108 119.309 113.07 117.478 108.244 119.906C105.204 121.436 102.196 123.034 99.2196 124.699C97.4175 125.705 93.4787 123.964 91.4376 121.147C99.6292 116.548 107.869 112.788 117.624 112.74C124.662 112.74 129.023 116.298 132.539 121.397C135.42 125.559 137.017 130.415 136.082 135.846C135.665 138.281 136.014 140.848 136.014 143.359L134.717 143.352Z" fill="#643FB0"/>
<path d="M45.2069 146.196C40.5196 143.135 35.8368 140.089 31.1585 137.06C30.6568 136.798 30.1309 136.586 29.5883 136.429C31.4657 130.262 33.3496 124.088 34.9198 118.955C37.2337 120.606 39.3636 122.25 41.6162 123.714C45.2138 126.051 46.265 128.979 45.4322 133.425C44.6541 137.525 45.2069 141.916 45.2069 146.196Z" fill="#643FB0"/>
<path d="M152.061 227.807L147.159 222.341C148.388 220.773 149.419 218.949 150.921 217.735C152.121 216.839 153.601 216.418 155.085 216.548C157.069 216.773 158.98 217.446 160.675 218.518C161.761 219.247 162.198 220.995 162.928 222.278C162.857 222.305 162.789 222.338 162.723 222.375C162.723 222.375 162.723 222.479 162.689 222.535L162.908 222.264L171.85 217.457C171.966 218.241 172.574 219.635 172.287 220.801C170.86 226.565 171.29 232.295 172 238.088C172.205 239.752 171.563 241.522 171.318 243.242L161.297 223.929L153.139 228.404L152.061 227.807Z" fill="#643FB0"/>
<path d="M184.675 131.266C184.266 125.557 183.815 119.848 183.508 114.131C183.46 113.341 184.143 112.508 184.491 111.69C185.178 107.611 185.861 103.53 186.539 99.4458C186.703 98.4749 186.853 97.5036 187.01 96.5323C187.406 97.6632 187.836 98.7801 188.191 99.9244C190.252 106.528 192.3 113.133 194.334 119.737L189.153 124.53L188.812 125.113L187.399 126.999L186.996 127.561L184.675 131.266Z" fill="#D2C9EA"/>
<path d="M161.049 205.452C161.185 205.195 161.288 204.758 161.465 204.71C164.783 204.092 170.49 210.509 169.473 213.672C168.913 215.406 165.479 216.925 162.694 216.558C160.032 216.204 157.403 215.642 154.741 215.33C153.184 215.101 151.602 215.101 150.045 215.33C146.024 216.024 145.56 215.85 144.195 211.861L144.229 211.827L149.007 210.002C149.888 209.836 150.912 209.912 151.615 209.461C154.775 207.463 157.956 205.688 162.435 206.791L161.049 205.452Z" fill="#643FB0"/>
<path d="M153.135 228.405L161.293 223.93L171.314 243.243C170.631 243.784 169.75 244.887 169.266 244.734C168.32 244.36 167.552 243.63 167.122 242.695C166.276 240.753 165.832 238.63 165.074 236.653C164.566 235.653 163.958 234.709 163.259 233.836L162.405 234.142C162.692 236.861 162.979 239.58 163.272 242.327C157.654 241.634 157.128 241.106 155.804 236.167C155.06 233.531 154.029 230.992 153.135 228.405Z" fill="#D2C9EA"/>
<path d="M174.473 235.105C172.425 224.006 178.05 215.862 182.664 207.302C184.275 209.654 186.078 212.04 187.579 214.628C187.948 215.273 187.62 217.055 187.047 217.402C183.361 219.816 182.057 223.951 179.729 227.336C178.098 229.771 176.459 232.192 174.473 235.105Z" fill="#643FB0"/>
<path d="M194.353 119.716C192.31 113.112 190.262 106.508 188.209 99.9039C187.854 98.7593 187.424 97.6424 187.028 96.5118L186.762 92.9532L187.54 92.4397C189.656 95.4991 191.95 98.454 193.827 101.659C196.025 105.398 197.739 109.435 199.903 113.202C201.159 115.394 200.763 116.83 198.708 117.898C197.315 118.634 195.814 119.126 194.353 119.716Z" fill="#643FB0"/>
<path d="M127.215 156.488C127.263 152.167 127.44 147.838 127.215 143.53C127.181 142.739 125.645 141.414 124.744 141.359C116.887 140.866 111.733 136.753 108.647 129.566C108.408 129.011 107.773 128.637 107.323 128.179L111.726 124.71C112.593 126.313 113.282 127.395 113.774 128.56C116.156 133.971 120.204 136.926 126.02 137.509C126.832 137.592 128.068 138.203 128.287 138.896C130.205 144.168 130.717 149.538 128.607 154.9C128.416 155.566 127.706 155.996 127.215 156.488Z" fill="#54339A"/>
<path d="M56.5618 157.827C55.5994 156.335 54.7394 154.768 53.6539 153.38C52.3502 151.701 50.855 150.168 49.442 148.573L51.5718 131.772L52.753 131.376C53.7519 132.169 54.6856 133.044 55.5447 133.991C56.2275 134.852 56.4596 136.073 57.0808 136.96C59.4085 140.366 60.0228 143.488 56.5962 146.714C54.3366 148.836 56.1593 151.514 56.3434 153.949C56.439 155.239 56.4868 156.536 56.5618 157.827Z" fill="#643FB0"/>
<path d="M184.56 185.244C179.857 186.589 175.174 188.018 170.45 189.26C166.047 190.432 162.013 189.26 158.163 186.978C154.101 184.571 149.971 182.261 145.923 179.833C145.609 179.646 145.589 178.931 145.432 178.445C150.422 180.18 155.501 181.692 160.381 183.704C166.703 186.312 172.915 185.389 179.195 183.863C180.355 183.586 181.495 183.17 182.669 182.996C184.355 182.76 185.25 183.371 184.56 185.244Z" fill="#D2C9EA"/>
<path d="M30.1252 81.6668C30.4664 79.2042 31.9069 79.7729 33.074 80.7719C34.8354 82.2773 36.4122 84.0115 38.0368 85.6834C44.1804 91.9821 50.0035 98.5998 58.4407 102.006C60.1543 102.7 61.2942 104.836 62.7004 106.314C54.9632 104.164 47.8649 100.114 42.0303 94.5208C37.8184 90.5182 34.0777 85.9815 30.1252 81.6668Z" fill="#54339A"/>
<path d="M133.844 155.909C133.441 159.689 133.038 163.463 132.636 167.202H136.417C134.554 169.977 128.383 171.85 126.089 169.797C124.683 168.534 124.287 165.96 123.734 163.893C123.222 161.992 124.922 161.777 126.137 161.056C128.792 159.495 131.284 157.643 133.844 155.909Z" fill="#643FB0"/>
<path d="M201.562 33.0896C206.156 39.1454 210.668 45.3958 211.119 53.304C211.501 59.9217 207.883 65.0203 203.214 69.3281C203.214 68.8982 203.002 68.3223 203.214 68.0519C208.293 60.9971 208.614 53.3177 206.006 45.3403C204.873 41.8718 203.309 38.5489 201.985 35.1428C201.784 34.4726 201.642 33.7854 201.562 33.0896Z" fill="#4C4C4C"/>
<path d="M152.322 197.861C148.643 201.433 142.158 199.713 140.806 194.704C140.226 192.561 140.123 190.286 139.605 188.114C139.2 186.772 138.71 185.458 138.137 184.181L140.868 182.96C142.233 186.248 143.298 189.37 144.847 192.207C146.131 194.545 148.131 196.272 151.121 196.286C151.517 196.293 151.919 197.313 152.322 197.861Z" fill="#D2C9EA"/>
<path d="M196.064 99.5429C199.061 99.4182 202.106 99.5847 205.048 99.1198C211.246 98.1486 215.246 93.827 218.81 89.0056C219.492 88.0415 220.216 87.0497 220.912 86.0715C220.742 91.4336 217.11 94.7496 213.594 97.7809C210.012 100.893 205.544 102.76 200.843 103.108C198.112 103.33 196.515 102.38 196.064 99.5429Z" fill="#4C4C4C"/>
<path d="M123.283 160.214C113.924 161.699 106.579 157.599 100.142 151.321C98.7761 149.968 97.9911 147.949 96.9468 146.243C96.9468 145.161 96.9468 144.085 97.0356 143.01C97.1653 140.541 97.3221 138.071 97.4724 135.609C97.5749 140.534 97.9843 145.32 101.391 149.33C106.852 155.767 113.337 159.666 121.945 159.139C122.546 159.127 123.148 159.151 123.747 159.208C123.59 159.541 123.44 159.881 123.283 160.214Z" fill="#643FB0"/>
<path d="M147.862 170.588C143.569 172.259 139.281 173.945 134.974 175.575C134.169 175.881 133.165 175.77 132.448 176.193C131.732 176.616 131.445 177.414 130.96 178.045L125.076 172.259C129.738 172.044 133.698 172.155 137.554 171.566C139.889 171.219 142.08 169.818 144.333 168.867C146.128 168.118 147.425 168.409 147.862 170.588Z" fill="#643FB0"/>
<path d="M187.012 127.564L187.415 127.002L188.828 125.115L189.17 124.532C191.258 124.532 191.654 125.49 190.624 127.203C189.593 128.917 189.258 130.623 190.262 132.669C190.753 133.661 190.303 135.215 190.071 136.478C188.941 141.985 188.532 147.621 188.856 153.237C188.843 153.811 188.777 154.383 188.658 154.944L187.634 155.11C187.323 153.781 187.095 152.432 186.951 151.073C186.869 148.936 186.951 146.779 187.053 144.636C187.176 142.104 187.49 139.579 187.586 137.005C187.661 134.813 189.101 132.475 186.794 130.429C186.391 130.082 186.924 128.563 187.012 127.564Z" fill="#54339A"/>
<path d="M118.189 127.665C119.739 128.49 120.838 129.33 122.074 129.67C123.084 129.947 124.245 129.67 125.337 129.58L125.972 128.678C126.381 129.718 127.419 131.154 127.071 131.716C126.333 132.937 124.948 134.401 123.705 134.491C120.791 134.817 118.306 131.841 118.189 127.665Z" fill="#3875FB"/>
<path d="M156.287 170.08L149.61 169.962C149.774 166.389 150.805 165.522 156.287 164.683V170.08Z" fill="#643FB0"/>
<path d="M161.053 205.461L162.466 206.779C157.988 205.676 154.806 207.472 151.646 209.45C150.963 209.9 149.919 209.824 149.038 209.991L156.868 204.927L158.111 204.822L161.053 205.461Z" fill="#D2C9EA"/>
<path d="M130.247 155.279L133.728 145.984C135.619 149.452 134.459 153.212 130.438 155.446L130.247 155.279Z" fill="#643FB0"/>
<path d="M126.754 126.469L116.474 124.867C119.02 122.432 123.962 123.229 126.754 126.469Z" fill="#643FB0"/>
<path d="M147.153 222.342L143.576 217.368H147.761C147.535 219.241 147.344 220.795 147.153 222.342Z" fill="#643FB0"/>
<path d="M223.517 78.5416C223.612 78.063 223.708 77.5913 223.81 77.1544C223.708 77.5913 223.612 78.0979 223.517 78.5416Z" fill="#0F0F18"/>
<path d="M130.444 155.436L130.198 156.185L129.931 156.115C130.041 155.831 130.143 155.547 130.252 155.269L130.444 155.436Z" fill="#464646"/>
<path d="M57.8574 20.2076C57.912 19.9995 57.9667 19.7914 58.0145 19.5833C57.9667 19.8261 57.912 19.9995 57.8574 20.2076Z" fill="#0F0F18"/>
<path d="M128.528 128.293L128.809 128.572L128.508 128.32L128.528 128.293Z" fill="#464646"/>
<path d="M152.06 49.6859L151.805 49.5516C151.883 49.5991 151.959 49.6507 152.033 49.7059L152.06 49.6859Z" fill="#464646"/>
<path d="M222.956 80.9977L223.257 80.3525C223.155 80.5674 223.052 80.7825 222.956 80.9977Z" fill="#0F0F18"/>
<path d="M144.184 211.835L143.949 211.562L144.218 211.801L144.184 211.835Z" fill="#464646"/>
<path d="M223.804 72.6517C223.716 72.381 223.634 72.1173 223.552 71.8469C223.634 72.1173 223.716 72.3879 223.804 72.6517Z" fill="#0F0F18"/>
<path d="M128.482 128.318L128.227 128.012L128.503 128.291L128.482 128.318Z" fill="#464646"/>
<path d="M222.004 63.3426C221.915 63.1069 221.827 62.8709 221.731 62.6492C221.847 62.8431 221.936 63.1069 222.004 63.3426Z" fill="#0F0F18"/>
<path d="M221.427 60.8495C221.332 60.6275 221.243 60.4055 221.147 60.1558L221.427 60.8495Z" fill="#0F0F18"/>
<path d="M118.378 46.5083L118.739 47.6875L117.886 47.0424L118.378 46.5083Z" fill="#040505"/>
<path d="M143.985 102.226C143.985 102.58 144.033 102.92 144.053 103.281L143.459 102.656L143.985 102.226Z" fill="#040505"/>
<path d="M77.1011 229.904L78.7803 230.868L78.0979 231.659L76.5208 230.362L77.1011 229.904Z" fill="#040505"/>
<path d="M97.5744 229.804L97.1103 229.214L97.9293 229.443C97.8065 229.561 97.6903 229.686 97.5744 229.804Z" fill="#464646"/>
<path d="M183.445 172.531L183.191 172.776C183.191 172.715 183.19 172.64 183.231 172.606C183.295 172.567 183.365 172.539 183.439 172.524L183.445 172.531Z" fill="#040505"/>
<path d="M204.942 84.4075C204.942 84.6644 204.942 84.9279 204.942 85.1845L204.492 84.7476C204.623 84.6104 204.775 84.4958 204.942 84.4075Z" fill="#040505"/>
<path d="M162.897 222.268L162.683 222.534C162.683 222.48 162.683 222.405 162.716 222.378C162.781 222.34 162.848 222.308 162.917 222.282L162.897 222.268Z" fill="#040505"/>
<path d="M49.5092 35.74C49.4614 36.0939 49.4136 36.4338 49.3727 36.8083L48.9221 38.8895C48.9221 40.5357 48.9221 42.1775 48.9221 43.8147C49.0792 44.55 49.2361 45.2783 49.3864 46.0067C50.7516 52.007 54.7998 55.1774 60.2197 57.1405C61.8921 57.751 62.8614 57.4249 64.2132 56.3635C68.5548 52.9505 72.8963 49.4683 77.586 46.6032C79.9615 45.1533 83.1494 45.1673 85.8323 44.1477C88.5953 43.0368 91.2779 41.7293 93.8599 40.2353C97.1025 38.4315 100.086 36.073 103.458 34.6094C109.731 31.9317 116.046 33.4508 122.319 35.2268C124.32 35.7737 126.402 35.9429 128.463 35.726C134.122 35.1573 139.105 36.7668 143.917 39.6525C146.095 40.9565 148.641 41.6296 151.017 42.6006C153.515 43.6133 156.027 44.5986 158.526 45.6806C161.024 46.7628 163.154 48.2336 165.625 48.9411C171.353 50.5852 175.524 54.0952 178.746 59.0413C181.059 62.593 182.971 63.2035 186.937 61.9685C194.705 59.5199 197.176 55.7253 197.579 47.4775C198.071 36.6764 193.811 27.8596 187.476 19.7295C187.108 19.2509 186.719 18.7861 186.357 18.3005C186.302 18.2312 186.357 18.0994 186.302 17.482C187.381 17.7525 188.35 17.9537 189.313 18.2589C200.781 21.9702 208.925 30.0518 216.304 39.2571C221.587 45.8271 225.337 53.5279 227.274 61.7814C227.458 62.5653 227.506 63.3906 227.615 64.1953L227.881 65.021C227.991 66.3667 228.102 67.7169 228.216 69.0719V73.387L228.1 74.8783C227.936 75.5721 227.779 76.2655 227.622 77.001C227.335 78.342 227.051 79.6857 226.769 81.0314C226.646 81.5169 226.53 82.0095 226.407 82.495C225.854 87.6491 223.499 91.9918 220.393 95.9527C215.519 102.196 211.102 108.828 204.433 113.385C203.832 113.795 203.614 116.021 204.126 116.667C206.174 119.247 205.566 121.328 203.894 123.777C200.876 128.189 198.016 132.726 195.286 137.332C194.505 138.739 194.065 140.316 194.002 141.931C193.368 155.555 196.733 167.799 206.146 178.003C206.512 178.461 206.781 178.99 206.939 179.558C207.096 180.126 207.138 180.72 207.061 181.305C202.965 202.81 193.34 221.754 181.538 239.86C169.598 258.166 154.847 273.809 139.064 288.578C131.459 295.695 123.793 302.744 115.889 310.081C111.601 306.137 107.424 302.356 103.315 298.492C89.143 285.151 74.439 272.262 62.5611 256.724C46.8606 236.19 32.6413 214.672 26.3815 188.859C25.3987 184.801 24.395 180.75 23.4667 176.678C22.8251 173.855 21.3234 170.788 25.2347 169.373C25.03 168.68 25.0369 168.409 24.914 168.333C18.7701 164.483 20.859 158.163 20.4769 152.634C20.429 152.01 21.8421 151.365 22.3267 150.553C22.8114 149.742 23.3576 148.472 23.1185 148.243C18.7907 144.4 20.825 139.628 21.1593 135.133C21.2364 133.395 21.5418 131.676 22.0674 130.02C22.2759 129.525 22.5831 129.078 22.9697 128.71C23.3561 128.341 23.8136 128.057 24.3132 127.876C26.3611 127.308 27.392 126.309 25.7468 124.554C23.6101 122.278 23.9991 120.003 24.989 117.527L31.3102 101.683C22.593 91.4992 16.7702 79.8244 14.3809 66.45L13.9099 64.466C13.7324 63.4324 13.5549 62.3847 13.3706 61.3788C13.4389 61.3165 13.5686 61.2264 13.5549 61.1918C13.4845 61.0476 13.4047 60.9086 13.316 60.7755C13.2682 59.8666 13.2136 58.958 13.1658 58.0563V51.8128L13.316 49.7318L13.4252 48.518C13.4593 48.0877 13.5003 47.6577 13.5344 47.2277C13.6232 46.9848 13.7051 46.7351 13.787 46.4922L13.8894 45.4308C14.0464 44.7024 14.2103 43.9741 14.3672 43.2457C14.6266 41.8585 14.6129 40.3463 15.1863 39.0835C20.8112 26.9786 28.7094 17.3016 42.0616 13.6181C42.647 13.4981 43.2401 13.4239 43.8365 13.3961L44.6011 13.1602L45.8573 12.9938L46.4441 12.9452H52.4856L53.0793 13.0146L54.9635 13.2296L55.646 13.41C61.0662 13.41 64.5544 16.5802 68.036 21.214C58.5133 21.8037 52.3353 26.0699 49.8301 34.9908L49.5092 35.74ZM128.524 128.293L128.244 128.008L128.504 128.32L128.811 128.577L128.524 128.293ZM130.442 155.437C134.463 153.203 135.624 149.471 133.733 145.975L130.251 155.27L129.93 156.117L130.196 156.186L130.442 155.437ZM158.103 204.814L156.86 204.918L149.03 209.982L144.252 211.814L143.979 211.564L144.218 211.841C145.583 215.858 146.047 216.052 150.068 215.31C151.626 215.081 153.207 215.081 154.764 215.31C157.427 215.622 160.055 216.184 162.717 216.538C165.502 216.905 168.936 215.386 169.496 213.652C170.513 210.489 164.806 204.072 161.489 204.689C161.311 204.724 161.209 205.175 161.072 205.432L158.103 204.814ZM194.35 119.719C195.811 119.115 197.313 118.623 198.706 117.901C200.754 116.833 201.156 115.397 199.9 113.205C197.736 109.438 196.023 105.401 193.825 101.662C191.948 98.457 189.654 95.5018 187.538 92.4427L186.76 92.9559L187.026 96.5145C186.869 97.4858 186.719 98.457 186.555 99.428C185.872 103.512 185.189 107.593 184.507 111.672C184.273 110.707 184.131 109.722 184.084 108.731C184.206 105.574 184.425 102.425 184.671 99.2755C184.978 95.363 185.353 91.4506 185.708 87.3647C182.978 86.1855 181.394 86.8724 180.541 90.3614C179.858 93.2266 179.421 96.1609 178.875 99.0673L177.933 98.9843C178.117 95.5158 178.35 92.0473 178.438 88.5789C178.438 87.6768 178.274 86.2064 177.756 85.9775C177.275 85.8292 176.769 85.785 176.271 85.8471C175.772 85.9092 175.292 86.0763 174.861 86.3383C173.817 87.0317 173.073 88.1626 172.165 89.1545C172.411 84.5969 175.394 82.0996 178.698 84.0281C180.746 85.2214 182.111 84.9021 183.77 83.6742C182.971 77.8058 184.527 70.9381 177.053 67.6779V73.609C172.274 61.1846 168.349 56.0929 163.782 55.7739C164.581 57.6191 165.4 59.4921 166.219 61.3583L165.536 61.7468C164.649 60.5535 163.939 59.1314 162.84 58.2088C159.324 55.2813 155.659 52.5343 152.055 49.7181L151.822 49.5584L152.082 49.6972C153.028 51.7689 153.979 53.8502 154.935 55.9404C152.518 53.2236 150.35 50.2886 148.457 47.1722C147.307 45.2052 145.525 43.7011 143.411 42.9127C141.298 42.1244 138.981 42.0999 136.852 42.8435C139.228 45.9649 141.631 49.0867 143.945 52.2362C144.259 52.6662 144.19 53.3945 144.293 53.9842C143.262 53.0406 142.156 52.1598 141.201 51.1399C136.617 46.2687 130.969 42.5618 124.715 40.3185C120.845 38.8755 116.974 39.1945 112.858 39.4236L118.401 46.534L117.909 47.0681C114.312 45.3685 110.823 43.3567 107.096 42.0596C102.468 40.4573 98.9045 42.0596 96.106 45.9512L107.922 51.2649C107.82 51.7021 107.71 52.1389 107.608 52.5761C99.5735 50.8 91.7235 49.8706 83.989 53.88C76.4052 57.8203 70.3365 62.8078 67.8857 71.6942C72.8279 73.0817 77.2038 76.1826 82.0641 72.6723C82.4284 72.4966 82.8282 72.4109 83.2312 72.4226C91.9281 71.5208 100.045 75.9674 103.676 85.1381C104.632 87.5381 105.042 90.1743 105.663 92.6298C108.564 90.9305 111.643 89.4943 114.298 87.4826C117.424 85.1241 120.687 83.7784 124.585 84.0141C125.449 84.1084 126.322 83.9547 127.104 83.5704C133.248 79.7689 141.692 80.1019 147.406 84.4512C148.008 84.9806 148.569 85.5559 149.085 86.1718L148.566 87.1012C145.686 86.1231 142.846 85.02 139.924 84.2015C136.06 83.1333 133.671 83.3484 131.166 84.6177C138.088 88.5162 141.883 94.7597 144 102.272L143.474 102.702C140.211 97.1528 136.518 92.0402 130.79 88.7731C125.459 85.7278 120.264 85.8942 116.046 89.5015C118.626 90.4241 121.793 90.3477 123.336 94.1006C120.763 93.4692 118.667 92.8518 116.51 92.4496C111.165 91.4437 106.734 93.5942 105.745 97.7633C105.164 100.191 104.939 102.709 104.543 105.283C105.146 105.37 105.744 105.495 106.332 105.657C112.66 107.815 119.425 109.168 125.172 112.393C131.132 115.73 135.043 121.855 138.764 127.71C139.185 128.602 139.379 129.587 139.33 130.575C139.676 139.373 137.796 148.115 133.869 155.964C131.309 157.698 128.818 159.551 126.162 161.111C124.947 161.805 123.247 162.048 123.759 163.949C124.312 166.03 124.708 168.589 126.115 169.852C128.408 171.933 134.579 170.005 136.443 167.258C137.303 164.728 138.165 162.184 139.03 159.627L139.897 159.87V166.959C140.99 166.527 142.119 166.193 143.269 165.96C146.061 165.655 147.365 164.309 147.611 161.34C147.781 159.197 148.757 157.13 149.372 155.021L150.471 155.25V163.491C155.399 163.588 157.741 161.25 158.144 156.672C158.266 155.284 158.99 153.966 159.441 152.614L160.185 152.732L160.867 162.069L172.178 156.602L179.387 162.582C180.07 160.272 180.664 158.42 181.373 156.075C182.363 160.154 180.329 164.282 183.667 167.653C184.22 166.078 184.664 164.823 185.101 163.567C185.541 165.19 185.737 166.872 185.681 168.555C185.736 170.317 185.879 172.072 185.968 173.584L183.49 172.53L181.189 166.696L178.459 168.846C178.773 164.899 173.796 160.758 170.144 161.632C168.213 162.09 166.315 163.019 164.376 163.102C159.918 163.324 158.594 166.169 158.13 169.97L156.348 170.081V164.684C150.887 165.523 149.836 166.391 149.672 169.963L147.925 170.587C147.488 168.409 146.191 168.118 144.375 168.888C142.122 169.838 139.931 171.239 137.596 171.586C133.739 172.155 129.78 172.044 125.118 172.28L131.023 178.065C132.913 179.05 134.654 178.926 136.695 178.065C141.064 176.262 145.569 175.242 150.246 177.372C153.039 178.669 155.904 179.802 158.826 180.764C161.057 181.576 163.385 182.08 165.748 182.262C171.523 182.47 177.305 182.332 182.5 182.332L184.78 178.704C189.333 177.767 189.313 177.524 189.559 172.96C189.852 167.709 188.528 162.929 186.712 158.115C183.428 149.409 183.469 140.363 184.664 131.262L186.998 127.558C186.91 128.557 186.377 130.076 186.807 130.457C189.115 132.504 187.674 134.841 187.599 137.033C187.504 139.572 187.19 142.097 187.067 144.664C186.957 146.808 186.882 148.965 186.964 151.101C187.108 152.461 187.336 153.809 187.647 155.139L188.671 154.972C188.79 154.411 188.857 153.84 188.869 153.266C188.545 147.649 188.954 142.014 190.084 136.506C190.316 135.244 190.767 133.69 190.275 132.698C189.265 130.617 189.593 129 190.637 127.231C191.681 125.463 191.272 124.547 189.183 124.561L194.35 119.719ZM147.153 222.344C147.344 220.797 147.536 219.243 147.761 217.37H143.576L143.051 216.614L142.682 216.087C141.474 214.859 140.218 212.528 139.064 212.577C133.494 212.813 128.763 210.933 124.046 207.818C125.766 216.274 127.555 224.626 129.937 232.791C130.836 235.507 132.518 237.885 134.763 239.617C136.129 240.685 138.859 240.255 140.907 239.929C141.405 239.853 141.706 237.543 141.822 236.238C141.972 234.491 141.856 232.715 141.856 230.953L142.586 230.751C143.33 233.179 143.952 235.642 144.866 238.021C145.16 238.819 145.952 239.901 146.627 239.984C148.671 240.149 150.723 240.181 152.771 240.082C152.505 235.684 152.259 231.757 152.014 227.789L153.085 228.386C153.979 230.973 155.01 233.512 155.727 236.148C157.092 241.088 157.577 241.608 163.195 242.308C162.902 239.534 162.615 236.842 162.328 234.123L163.181 233.818C163.88 234.69 164.489 235.634 164.997 236.634C165.782 238.611 166.226 240.734 167.045 242.676C167.475 243.611 168.242 244.341 169.189 244.715C169.673 244.868 170.554 243.765 171.236 243.224C171.489 241.504 172.131 239.756 171.919 238.07C171.236 232.278 170.779 226.548 172.206 220.783C172.493 219.618 171.885 218.223 171.769 217.439L162.826 222.247C162.096 220.963 161.659 219.215 160.574 218.487C158.878 217.415 156.968 216.741 154.983 216.517C153.499 216.386 152.02 216.808 150.819 217.703C149.317 218.917 148.286 220.741 147.058 222.309L147.153 222.344ZM96.9456 146.239C96.2081 143.332 95.1638 140.467 94.8429 137.512C94.563 134.931 95.0954 132.261 95.2729 129.632C93.7643 127.28 91.4297 127.21 89.3274 128.05C78.4113 132.487 68.4436 139.028 59.9741 147.314C58.7179 148.521 58.6089 149.569 59.1957 151.067C60.4109 154.355 61.5031 157.685 62.6567 161.056C65.5715 159.086 67.2373 155.451 70.9986 154.424C69.2716 157.553 67.1142 160.286 65.0938 163.116C64.5819 163.81 63.981 165.197 64.2951 165.704C67.1077 170.199 70.1181 174.569 73.2104 179.182C76.3298 175.395 78.9375 172.245 81.5451 169.082L82.3372 169.644C80.7808 172.565 79.3812 175.589 77.6269 178.385C76.0977 180.819 75.9339 182.692 78.405 184.565C80.8764 186.438 83.2247 188.526 85.6139 190.538C87.8597 192.439 89.3817 191.926 90.7607 189.352C92.2556 186.577 94.0714 183.941 95.751 181.249C96.5237 183.746 96.9937 186.33 97.1503 188.943C97.4574 192.626 98.0924 195.81 102.359 197.135C104.775 197.884 106.775 199.91 109.13 201.034C111.725 202.234 114.51 203.018 117.698 204.155C113.766 193.056 110.748 182.72 110.81 171.76C112.687 176.817 113.929 182.061 115.841 187.021C117.889 192.349 121.984 195.748 128.053 198.044C125.206 191.329 124.558 185.356 128.613 179.73C123.752 174.729 121.725 168.832 121.923 162.09L123.288 160.196C123.445 159.863 123.596 159.502 123.752 159.19L126.196 157.803L126.729 157.185C126.893 156.956 127.056 156.72 127.227 156.491C127.718 155.971 128.428 155.541 128.674 154.924C130.784 149.561 130.272 144.192 128.353 138.92C128.108 138.226 126.899 137.637 126.087 137.533C120.271 136.95 116.223 133.995 113.841 128.584C113.322 127.419 112.632 126.336 111.793 124.734L107.39 128.203L98.3243 131.026C98.1402 132.046 97.8193 133.801 97.5052 135.59C97.3549 138.053 97.1981 140.523 97.0684 142.992C96.9728 144.081 96.9728 145.157 96.9456 146.239ZM62.6908 106.317C67.3873 107.704 72.0636 109.14 76.7873 110.402C78.9784 110.985 81.4632 111.935 83.4772 111.408C87.2656 110.409 90.8085 108.453 94.4539 106.899C92.206 106.072 89.8682 105.522 87.4909 105.262C75.149 103.583 64.0835 98.3252 53.2911 92.4427C46.4988 88.7176 40.6964 83.7506 36.7439 76.876C36.1433 75.8355 36.2798 74.3579 36.0614 73.0817C40.5258 80.1434 47.2975 84.6246 53.7552 89.4666C65.8446 98.5403 79.9683 101.794 94.3855 104.132C95.621 104.333 97.7577 103.5 98.3311 102.48C103.226 93.7816 96.8225 80.4973 87.0541 78.8045C86.4535 78.7007 85.757 79.1444 85.0608 79.3458C88.713 84.59 89.5458 88.114 87.8665 91.0206C84.8627 82.2593 82.5897 78.6452 76.603 79.304C78.5144 82.5991 80.0162 85.9635 79.3334 90.4032C77.5245 86.9347 76.0158 83.938 74.4459 81.0036C72.6573 77.653 69.4285 77.2645 66.1793 76.7027C68.1792 80.0533 70.0634 83.1747 69.5034 87.1705C67.7677 84.8746 66.2414 82.4228 64.9435 79.845C63.2029 76.3142 61.1343 73.2965 57.4346 71.5208C54.9253 70.2306 52.5668 68.6575 50.4035 66.8313C42.4644 60.4147 37.6247 52.5274 39.4815 41.6711L39.7477 38.4661C40.9557 28.9627 49.3864 20.4302 57.8714 20.2013L58.0286 19.5769L53.6392 18.6682L52.3284 18.4323H46.6216L45.9391 18.5849C39.3721 19.5908 33.6516 22.4488 29.665 27.8388C25.416 33.5373 22.6037 40.2057 21.4734 47.2623L21.1662 48.7537C21.1662 50.2244 21.1662 51.6949 21.1662 53.1657L21.3915 55.1774C21.7261 56.974 22.0742 58.7706 22.3883 60.5672C22.7842 63.0439 22.8798 65.6175 23.651 67.9691C25.2281 72.7902 26.1974 77.9792 30.1362 81.6696C34.0884 85.9844 37.8294 90.5211 42.0413 94.5583C47.8736 100.136 54.9644 104.174 62.6908 106.317ZM152.328 197.884C151.925 197.336 151.522 196.316 151.119 196.309C148.129 196.309 146.129 194.568 144.846 192.23C143.296 189.393 142.252 186.272 140.866 182.984L138.136 184.205C129.487 191.44 130.906 194.804 134.859 203.17C135.828 205.217 137.548 206.25 139.808 205.674C145.802 204.155 151.897 202.9 157.707 200.818C161.605 199.431 164.888 199.362 168.089 201.928C170.479 203.836 172.752 205.89 175.073 207.88C180.24 201.901 180.589 200.111 176.896 195.491C176.336 197.218 175.899 198.557 175.196 200.707C174.411 199.008 172.998 197.357 173.359 196.42C174.185 194.547 175.494 192.936 177.148 191.759C177.674 191.363 179.415 192.654 180.862 193.285C182.957 191.35 185.162 189.012 184.555 185.245C185.237 183.372 184.35 182.762 182.684 183.011C181.51 183.178 180.37 183.601 179.21 183.879C172.929 185.405 166.717 186.327 160.396 183.719C155.516 181.707 150.437 180.195 145.447 178.461C144.825 178.697 143.767 178.801 143.658 179.154C142.648 182.72 144.682 187.839 147.624 189.942C149.399 189.4 151.037 188.45 152.594 188.554C153.87 188.651 155.72 189.782 156.136 190.906C157.154 193.632 155.106 196.788 152.328 197.857V197.884ZM221.431 60.8447L221.151 60.1513C217.314 45.4863 207.669 35.1781 197.156 25.4664L196.385 26.0422L201.559 33.0554C201.635 33.7605 201.775 34.4569 201.975 35.1364C203.3 38.5425 204.863 41.8654 205.996 45.3338C208.604 53.3113 208.283 60.9907 203.204 68.0455C203.006 68.3158 203.204 68.8917 203.204 69.3217C203.887 69.9808 204.638 70.6119 205.314 71.3057C207.621 73.685 209.915 76.0921 212.208 78.4924L211.587 79.096C208.945 77.1953 206.228 75.3847 203.689 73.352C201.354 71.4862 199.682 71.7774 198.774 73.574L204.938 84.4098C204.773 84.4984 204.624 84.613 204.494 84.7496C202.501 82.62 200.528 80.4764 198.514 78.3677C195.449 75.1489 195.443 75.1558 191.818 77.1604L196.562 87.9129L195.743 88.3151C193.552 85.4434 191.47 82.4672 189.101 79.7549C188.33 78.8669 186.801 78.6589 184.923 77.8404C186.288 87.1776 192.05 92.8867 196.057 99.539C196.487 102.314 198.064 103.327 200.836 103.105C205.534 102.755 209.999 100.888 213.58 97.777C217.096 94.7457 220.727 91.43 220.898 86.0676L221.813 84.1114L222.086 83.5841L222.304 82.8904L222.571 82.1342L222.919 80.9896L223.219 80.3445C223.301 79.7412 223.39 79.1375 223.478 78.541C223.574 78.0624 223.67 77.5907 223.772 77.1535V72.6792C223.683 72.4157 223.601 72.1451 223.519 71.8747C223.417 71.07 223.321 70.2583 223.226 69.4536L222.878 68.1842L222.687 66.3041L222.311 65.0487C222.223 64.4728 222.134 63.8901 222.052 63.3145C221.963 63.0785 221.874 62.8428 221.779 62.6208L221.431 60.8447ZM29.6106 136.402C29.5762 137.096 29.6106 137.838 29.5081 138.546C28.3338 146.988 27.9788 155.43 29.5081 163.866C29.5915 164.74 29.9449 165.566 30.5183 166.224C35.9795 170.851 41.4404 175.534 47.0928 179.89C56.52 187.125 66.1177 194.124 75.6199 201.256C76.0947 201.718 76.5118 202.237 76.8623 202.802C67.0121 197.426 46.526 188.804 36.9282 188.291C36.9282 196.004 40.3005 201.589 48.0346 206.833C58.2742 213.77 68.5751 220.707 77.1285 229.905L76.528 230.363L46.9494 216.191L45.9938 217.578C64.1926 248.794 88.3168 274.101 118.892 293.052C120.517 291.665 121.862 290.617 123.138 289.459C125.425 287.378 127.671 285.241 129.965 283.125C130.507 282.911 131.019 282.624 131.487 282.272C139.86 274.198 148.225 266.105 156.58 257.993C157.673 256.938 158.778 255.912 160.144 254.587C154.553 253.13 149.392 251.985 144.272 253.616C139.262 255.204 134.654 255.731 130.504 251.715C130.449 251.666 130.313 251.715 130.21 251.715C128.654 249.53 126.695 247.553 125.63 245.125C123.37 240.026 121.609 234.719 119.582 229.503C119.158 228.283 118.56 227.133 117.807 226.09C114.155 221.484 110.414 216.947 106.693 212.389C103.567 208.553 100.679 204.585 96.1469 202.088C78.8215 192.529 66.4796 178.163 57.9602 160.231L57.5849 159.606C57.2571 159.016 56.9362 158.42 56.6156 157.83C56.5403 156.54 56.4925 155.243 56.3969 153.952C56.2128 151.518 54.3901 148.84 56.6496 146.717C60.0628 143.492 59.462 140.37 57.1343 136.964C56.5131 136.055 56.2741 134.883 55.5985 133.995C54.7391 133.048 53.8054 132.173 52.8065 131.38L51.6253 131.775L49.4955 148.576C48.9496 152.678 48.4057 156.776 47.864 160.869L47.045 160.987C46.4352 156.052 45.8298 151.125 45.2292 146.204C45.2292 141.924 44.7036 137.533 45.4817 133.398C46.3144 128.959 45.2633 126.031 41.6657 123.686C39.413 122.223 37.2832 120.579 34.9693 118.928C33.3444 124.061 31.4605 130.235 29.5831 136.402H29.6106ZM41.6998 111.644L41.1129 112.941C44.1846 115.799 47.2566 118.63 50.3351 121.515C56.0694 126.933 62.4655 130.367 70.6368 128.986C72.2001 128.723 73.8588 129.097 75.4152 128.903C78.0366 128.57 80.6236 128.015 83.8868 127.44C82.4122 125.185 81.4976 123.382 80.2208 121.89C77.1626 118.338 76.3367 118.421 72.3023 120.662C70.8143 121.509 68.8891 122.265 67.2852 122.05C63.7695 121.599 60.3291 120.51 56.8612 119.677L57.0181 119.192L65.3737 117.693C62.0221 115.495 58.4965 113.583 54.8338 111.977C52.6221 110.971 50.3488 109.521 48.0621 109.431C45.9595 109.369 43.8365 110.853 41.6726 111.644H41.6998ZM134.743 143.353H135.992C135.992 140.842 135.644 138.275 136.06 135.84C136.996 130.409 135.378 125.574 132.517 121.39C129.002 116.292 124.64 112.705 117.602 112.733C107.847 112.782 99.5804 116.542 91.416 121.141C93.464 123.957 97.3959 125.698 99.1982 124.692C102.174 123.032 105.183 121.435 108.223 119.899C113.049 117.471 124.087 119.303 127.691 124.013C131.104 128.473 135.289 132.372 134.012 138.906C133.746 140.294 134.456 141.868 134.715 143.353H134.743ZM174.5 235.108C176.486 232.194 178.124 229.773 179.783 227.366C182.111 223.981 183.415 219.846 187.101 217.432C187.674 217.058 188.002 215.275 187.633 214.658C186.138 212.07 184.33 209.684 182.718 207.332C178.049 215.865 172.397 224.03 174.472 235.108H174.5ZM118.189 127.662C118.305 131.824 120.79 134.813 123.705 134.522C124.947 134.397 126.333 132.934 127.07 131.747C127.418 131.186 126.388 129.749 125.971 128.709L125.336 129.611C124.244 129.666 123.083 129.978 122.073 129.701C120.838 129.326 119.739 128.487 118.189 127.662ZM126.756 126.468C123.964 123.229 119.022 122.431 116.475 124.866L126.756 126.468Z" fill="#3E2470"/>
<path d="M227.59 77.013C227.747 76.3192 227.904 75.6255 228.068 74.8903C227.904 75.5977 227.747 76.3055 227.59 77.013Z" fill="#0F0F18"/>
<path d="M14.3439 43.2063C14.187 43.9001 14.0231 44.663 13.8661 45.3914L14.3439 43.2063Z" fill="#0F0F18"/>
<path d="M13.8036 46.4562C13.7217 46.6991 13.6398 46.9488 13.5511 47.1914C13.6057 46.9488 13.6876 46.6991 13.8036 46.4562Z" fill="#0F0F18"/>
<path d="M13.3177 60.7561C13.4063 60.8892 13.4862 61.0282 13.5566 61.1724C13.5566 61.207 13.4405 61.2971 13.3722 61.3594L13.3177 60.7561Z" fill="#0F0F18"/>
<path d="M206.838 115.14C209.194 119.24 208.477 122.625 205.896 126.121C203.009 130.033 200.121 134.106 198.183 138.538C196.886 141.514 196.749 145.26 196.927 148.617C197.528 159.509 201.309 169.047 209.282 176.712C210.163 177.559 210.32 179.765 210.04 181.194C206.381 200.076 198.845 217.266 188.878 233.609C175.587 255.384 159.006 274.142 140.411 291.22C132.247 298.698 124.254 306.328 116.007 314.035C114.901 313.086 113.905 312.287 112.963 311.421C95.5762 295.466 77.609 279.969 62.6935 261.516C43.7232 238.049 27.77 212.736 21.7354 182.234C21.2029 179.535 20.4111 176.886 19.9743 174.173C19.7218 172.564 19.9265 170.878 19.9265 168.36C16.9435 164.371 16.2061 152.329 19.5237 148.243C15.2915 144.892 17.7079 140.46 18.0972 136.45C18.4862 132.441 18.0972 127.744 21.3464 125.15C21.4557 122.66 21.1145 120.481 21.7151 118.622C23.2509 113.877 25.1283 109.229 27.0397 104.637C27.77 102.889 27.5584 101.779 26.4185 100.281C16.0286 86.7261 10.1649 71.319 9.96012 54.1294C9.74848 36.7455 17.8172 23.4611 32.1525 14.4778C40.8288 9.03926 50.6996 8.27619 60.3796 11.3492C63.6903 12.3967 66.7076 15.2756 69.1512 17.981C71.8066 20.9084 70.3732 24.2242 66.4207 24.3976C55.0003 24.8624 50.3856 36.3707 52.3789 45.4096C53.4235 50.1754 56.5977 52.7073 60.8436 54.0184C61.6151 54.2541 62.9803 53.3246 63.7721 52.5825C68.9534 47.7683 74.462 43.2731 81.4659 41.976C87.2343 40.9075 91.9308 38.1121 96.5317 34.8585C104.832 28.9829 113.68 29.5448 122.786 32.3058C124.272 32.8682 125.859 33.1049 127.441 32.9995C133.824 32.0214 139.51 33.7488 145.012 36.8843C147.238 38.1536 149.736 38.9166 152.118 39.9016C154.624 40.9283 157.156 41.8927 159.628 42.9747C162.099 44.057 164.46 45.5761 167.027 46.3531C172.694 48.0255 177.555 51.7623 180.68 56.8486C182.25 59.3044 183.854 60.005 186.687 59.0131C193.002 56.8 194.612 53.6854 194.64 45.7288C194.681 36.0171 190.366 28.2824 184.612 21.0818C184.23 20.6031 183.683 20.1314 183.588 19.5903C183.369 18.3625 182.96 16.8711 183.445 15.9207C183.834 15.1507 185.575 14.464 186.462 14.7067C190.414 15.775 194.729 16.4618 198.067 18.6261C207.978 25.015 216.566 32.9578 222.805 43.3146C227.904 51.7778 231.372 60.9622 231.29 70.7572C231.215 79.588 229.441 88.5504 223.973 95.9454C218.949 102.744 214.272 110.013 206.838 115.14ZM13.3187 60.7611L13.3733 61.3647C13.5576 62.3912 13.7351 63.4457 13.9126 64.4516L14.3836 66.4356C16.7729 79.81 22.575 91.4848 31.3128 101.668L24.9439 117.54C23.954 120.017 23.5787 122.292 25.7017 124.567C27.3469 126.322 26.3501 127.342 24.268 127.89C23.7684 128.07 23.311 128.354 22.9246 128.723C22.538 129.092 22.2308 129.538 22.0222 130.033C21.4967 131.689 21.1913 133.408 21.1145 135.146C20.7798 139.641 18.7456 144.414 23.0734 148.257C23.3125 148.465 22.7253 149.873 22.2816 150.567C21.8379 151.261 20.3839 151.996 20.4317 152.648C20.8139 158.198 18.7319 164.496 24.8689 168.346C24.9917 168.422 24.9849 168.707 25.1895 169.387C21.2782 170.774 22.78 173.868 23.4215 176.691C24.3499 180.763 25.3536 184.815 26.3366 188.873C32.6099 214.685 46.8155 236.203 62.516 256.737C74.3939 272.276 89.0979 285.178 103.269 298.504C107.365 302.368 111.557 306.134 115.844 310.096C123.748 302.762 131.414 295.716 139.019 288.591C154.801 273.822 169.553 258.18 181.492 239.873C193.295 221.768 202.941 202.823 207.016 181.318C207.092 180.734 207.051 180.139 206.894 179.572C206.736 179.004 206.467 178.475 206.101 178.016C196.749 167.812 193.336 155.568 193.971 141.923C194.033 140.309 194.473 138.732 195.254 137.324C197.985 132.718 200.845 128.181 203.862 123.769C205.535 121.321 206.129 119.24 204.094 116.659C203.582 116.014 203.801 113.787 204.401 113.378C211.071 108.82 215.488 102.168 220.362 95.9454C223.468 91.9843 225.822 87.6209 226.376 82.4878L226.737 81.0239C227.015 79.6781 227.299 78.3348 227.59 76.9935C227.748 76.2998 227.904 75.6063 228.069 74.8708L228.184 73.3794V69.0856L227.85 65.0343L227.584 64.2087C227.475 63.4042 227.427 62.5786 227.242 61.7947C225.308 53.5365 221.558 45.8309 216.272 39.2565C208.893 30.0165 200.749 21.9697 189.281 18.2585C188.332 17.9532 187.349 17.7521 186.271 17.4815C186.305 18.0989 186.271 18.2307 186.325 18.3001C186.687 18.7857 187.076 19.2504 187.445 19.7291C193.78 27.8592 198.039 36.676 197.548 47.4768C197.173 55.704 194.674 59.5195 186.905 61.9681C182.926 63.2169 181.015 62.5926 178.714 59.0409C175.492 54.0948 171.321 50.5845 165.594 48.9407C163.123 48.2469 160.877 46.7347 158.494 45.6802C156.112 44.6257 153.511 43.5992 150.985 42.6002C148.61 41.629 146.064 40.9561 143.886 39.6521C139.073 36.7661 134.09 35.1569 128.431 35.7256C126.371 35.9425 124.288 35.7734 122.287 35.2261C116.014 33.4504 109.7 31.9313 103.426 34.6087C100.054 36.0518 97.0711 38.4311 93.8285 40.2346C91.2463 41.7289 88.5639 43.0365 85.8006 44.1471C83.118 45.167 79.9301 45.1529 77.5546 46.6028C72.8649 49.4677 68.5234 52.9502 64.1818 56.3631C62.8166 57.4245 61.8607 57.7504 60.1883 57.1401C54.7681 55.1767 50.6996 52.0067 49.355 46.0063C49.2047 45.278 49.0479 44.5496 48.8907 43.8141C48.8907 42.1771 48.8907 40.5354 48.8907 38.8888L49.3413 36.8079C49.3822 36.454 49.43 36.1141 49.4778 35.7396L49.7713 34.9904C52.297 26.0625 58.4544 21.8102 67.9772 21.2136C64.4958 16.5797 61.0074 13.4442 55.5874 13.4095L54.9046 13.2292L53.0207 13.0141L52.4267 12.9448H46.3855L45.7984 12.9933L44.5422 13.1598L43.7779 13.3957C43.1815 13.4234 42.5881 13.4976 42.003 13.6176C28.6505 17.3012 20.7526 26.9782 15.1277 39.0831C14.5543 40.3178 14.5678 41.8578 14.3085 43.2453L13.8306 45.4304L13.7283 46.4918C13.6463 46.7347 13.5644 46.9845 13.4757 47.227L13.3664 48.5173C13.3664 48.9198 13.2914 49.322 13.2572 49.7314L13.1071 51.8124V58.0556L13.3187 60.7611Z" fill="#D2C9EA"/>
<path d="M184.999 45.7132C185.245 38.152 181.511 32.2904 177.033 26.8309C171.428 19.991 172.889 10.7372 178.828 7.0051C181.737 5.15678 185.23 4.50208 188.596 5.17373C200.624 7.25482 209.854 14.2542 218.359 22.5161C229.964 33.74 236.947 47.4268 240.347 63.4441C242.129 71.81 239.507 79.1423 238.128 86.87C236.96 93.0025 234.275 98.7319 230.326 103.519C226.537 108.271 222.639 112.939 218.837 117.684C218.408 118.315 218.096 119.02 217.916 119.765C216.803 123.178 216.127 126.813 214.537 129.969C212.448 134.132 209.615 137.898 207.178 141.88C206.716 142.645 206.451 143.516 206.406 144.412C206.099 154.228 208.645 162.865 216.004 169.781C219.656 173.249 220.298 177.758 219.417 182.746C214.673 208.808 202.529 231.304 187.736 252.698C176.725 268.653 163.633 282.527 149.693 295.707C138.655 306.113 127.467 316.407 116.067 327C110.606 322.083 105.069 317.49 99.9429 312.495C86.1467 299.071 71.5862 286.301 59.0189 271.754C39.2225 248.813 22.3412 223.681 14.907 193.366C12.2244 182.42 10.1287 171.307 8.17636 160.201C7.60293 156.975 8.27192 153.527 8.38116 150.177C8.44674 149.671 8.47869 149.161 8.47671 148.651C6.85886 133.743 11.4325 119.966 16.0744 106.224C16.6887 104.414 16.7572 103.207 15.5966 101.576C7.51422 90.2693 3.99181 77.1792 1.06332 63.7493C-1.26448 53.212 0.428462 43.0357 4.21026 33.7886C10.9137 17.4036 22.3887 5.47895 40.3012 1.21968C48.3437 -0.805378 56.8018 -0.29978 64.5551 2.66949C71.668 5.44428 77.7232 10.1129 79.5184 18.5412C80.7471 24.3058 77.2383 32.1239 70.5212 33.2267C69.3404 33.421 68.1936 33.8304 67.0262 34.1147C62.7462 35.1484 61.565 36.7576 61.6128 41.7938C63.0193 40.7811 64.1661 39.7128 65.5175 39.0191C69.8113 36.9381 74.1666 34.9264 78.4876 32.9355C82.5835 31.0694 86.9523 29.7514 90.6386 27.3095C99.308 21.5449 108.544 19.0476 118.586 21.6421C123.903 23.0295 129.255 22.5439 134.532 23.3486C140.293 24.2365 145.939 25.6308 150.765 29.2588C151.156 29.5768 151.584 29.8424 152.042 30.0495C158.247 32.547 164.383 35.2522 170.691 37.4376C175.892 39.2721 180.639 42.233 184.603 46.1157L185.04 46.4555L184.999 45.7132ZM60.9713 49.702C57.6128 48.2453 56.111 45.7758 56.0426 42.2518C55.8719 33.8026 58.8074 29.8693 67.7292 28.3779C74.5556 27.2124 76.1324 19.8176 72.6308 15.8913C69.7363 12.6518 66.3162 9.02373 62.4321 7.73347C50.0286 3.61987 38.0141 5.22231 27.058 12.9709C17.9449 19.4153 11.4598 28.0102 8.14905 38.6792C5.63004 46.788 5.10272 55.3998 6.61313 63.7633C9.02283 77.3526 13.5555 90.0404 21.8087 101.223C22.1287 101.732 22.3438 102.302 22.4412 102.898C22.5387 103.494 22.5159 104.104 22.3752 104.691C20.2179 112.211 17.904 119.696 15.5966 127.174C12.8661 136.116 12.9957 145.432 13.5009 154.492C14.047 164.432 16.2316 174.317 18.1293 184.147C23.952 214.572 39.8028 239.934 58.8552 263.131C70.2141 276.956 83.6485 289.027 96.3523 301.679C102.571 307.873 109.254 313.584 115.923 319.716C125.753 310.484 135.378 301.5 144.969 292.495C159.844 278.538 173.729 263.749 185.245 246.663C198.556 226.9 209.492 206.186 213.977 182.406C214.564 179.319 214.837 176.246 212.311 173.832C206.086 167.887 202.222 160.652 201.389 152.008C201 148.068 200.706 143.614 202.072 140.104C204.024 135.186 207.533 130.913 210.489 126.404C212.168 123.809 212.939 121.118 212.147 118.01C212.064 117.646 212.054 117.269 212.12 116.901C212.186 116.534 212.325 116.184 212.529 115.874C216.762 110.858 221.145 105.974 225.35 100.945C232.975 91.8302 235.132 80.745 235.275 69.3197C235.37 61.6889 232.995 54.2319 229.664 47.3504C225.165 38.0878 218.821 29.8767 211.035 23.2376C204.358 17.4868 197.423 12.6448 188.699 10.8412C184.555 9.98106 181.654 10.758 179.92 13.5605C178.186 16.363 178.493 19.8038 180.924 22.8491C186.153 29.4461 190.433 36.4177 190.624 45.2969C190.733 50.1114 190.453 54.1418 184.528 55.085C180.971 49.8617 176.596 45.6162 170.548 43.1467C161.707 39.5395 153.072 35.4187 144.266 31.7423C141.137 30.4219 137.868 29.4721 134.525 28.912C130.074 28.1766 125.419 28.5095 121.043 27.5246C110.851 25.1868 101.424 25.9568 92.7616 32.4846C90.2086 34.3991 87.3004 36.6051 84.365 37.0697C75.0881 38.5542 67.7839 43.2923 60.9713 49.702Z" fill="#3E2470"/>
<path d="M60.9662 49.7007C67.7923 43.291 75.0831 38.5182 84.3531 37.0477C87.3225 36.5829 90.1964 34.3769 92.7496 32.4624C101.412 25.9346 110.839 25.1646 121.031 27.5023C125.407 28.5081 130.062 28.196 134.513 28.8898C137.856 29.4498 141.125 30.3996 144.254 31.72C153.06 35.3965 161.695 39.5172 170.536 43.1245C176.584 45.5939 180.959 49.8394 184.516 55.0627C190.441 54.1195 190.721 50.0892 190.612 45.2749C190.421 36.3955 186.141 29.4239 180.912 22.8269C178.482 19.7538 178.181 16.32 179.908 13.5383C181.635 10.7566 184.543 9.95883 188.687 10.819C197.411 12.6226 204.347 17.4646 211.023 23.2153C218.809 29.8545 225.153 38.0656 229.652 47.3282C232.983 54.2096 235.358 61.6389 235.263 69.2974C235.12 80.7227 232.962 91.8079 225.338 100.923C221.133 105.952 216.75 110.836 212.518 115.851C212.313 116.162 212.174 116.512 212.108 116.879C212.042 117.247 212.052 117.624 212.135 117.988C212.927 121.095 212.135 123.787 210.476 126.381C207.555 130.891 204.012 135.164 202.06 140.082C200.694 143.592 200.974 148.046 201.377 151.986C202.224 160.609 206.087 167.864 212.299 173.81C214.825 176.224 214.552 179.297 213.965 182.384C209.48 206.163 198.544 226.877 185.233 246.641C173.724 263.726 159.839 278.516 144.957 292.473C135.4 301.491 125.735 310.433 115.911 319.609C109.242 313.492 102.559 307.784 96.3403 301.574C83.6431 288.977 70.209 276.886 58.8498 263.06C39.7977 239.863 23.9469 214.502 18.1239 184.076C16.24 174.246 14.0282 164.361 13.4957 154.421C12.9906 145.361 12.8131 136.045 15.5916 127.103C17.8986 119.625 20.2128 112.14 22.3699 104.62C22.5109 104.033 22.5333 103.423 22.4359 102.827C22.3385 102.231 22.1233 101.661 21.8033 101.152C13.5503 89.9973 9.01765 77.3098 6.60795 63.6925C5.09754 55.3289 5.62486 46.7171 8.14387 38.6083C11.4546 27.9394 17.9395 19.3445 27.053 12.9001C38.0091 5.15153 50.0235 3.54909 62.4271 7.66269C66.3112 8.95298 69.7312 12.581 72.6254 15.8205C76.1274 19.7399 74.5368 27.1347 67.7242 28.307C58.802 29.8261 55.8669 33.7595 56.0375 42.1809C56.1194 45.7742 57.6074 48.2645 60.9662 49.7007ZM206.831 115.13C214.265 109.99 218.941 102.733 224.006 95.8938C229.467 88.4988 231.249 79.5364 231.324 70.7058C231.406 60.9106 227.911 51.7261 222.839 43.2632C216.6 32.9061 208.012 24.9634 198.1 18.5745C194.749 16.4102 190.434 15.7234 186.496 14.6552C185.608 14.4124 183.867 15.0991 183.478 15.8691C182.994 16.8195 183.403 18.3109 183.622 19.5387C183.717 20.0798 184.263 20.5515 184.646 21.0302C190.4 28.2307 194.714 35.9792 194.673 45.6772C194.673 53.6337 193.035 56.7764 186.721 58.9615C183.888 59.9533 182.284 59.2527 180.714 56.797C177.588 51.7109 172.728 47.9739 167.061 46.3014C164.494 45.5244 162.146 44.0122 159.661 42.9233C157.176 41.8342 154.644 40.8421 152.152 39.8502C149.77 38.8649 147.271 38.102 145.046 36.8326C139.544 33.6971 133.858 31.9766 127.475 32.9479C125.893 33.0532 124.306 32.8166 122.819 32.2541C113.713 29.4794 104.866 28.9312 96.5653 34.8068C91.9644 38.0605 87.2678 40.8561 81.4998 41.9243C74.4959 43.2214 68.9869 47.7167 63.8057 52.5309C63.0139 53.2593 61.6487 54.2028 60.8775 53.9667C56.6312 52.6556 53.4571 50.1238 52.4128 45.3582C50.4195 36.34 55.0341 24.8108 66.4546 24.346C70.3865 24.1865 71.8199 20.8776 69.185 17.9294C66.7411 15.224 63.7239 12.3798 60.4131 11.2977C50.7335 8.22459 40.8626 8.98766 32.1864 14.4262C17.8508 23.4443 9.7822 36.6939 9.99381 54.0777C10.1986 71.2677 16.0625 86.6813 26.4521 100.229C27.592 101.728 27.8173 102.838 27.0733 104.586C25.1415 109.178 23.2848 113.826 21.7486 118.57C21.1481 120.43 21.4893 122.608 21.3802 125.098C18.1514 127.693 18.5267 132.299 18.1308 136.398C17.7349 140.498 15.3253 144.848 19.5575 148.191C16.24 152.277 16.9771 164.32 19.9603 168.308C19.9603 170.827 19.7554 172.512 20.0081 174.122C20.445 176.834 21.2368 179.484 21.7693 182.182C27.797 212.705 43.7499 237.997 62.7274 261.465C77.6429 279.917 95.6098 295.386 112.996 311.37C113.938 312.236 114.935 313.035 116.041 313.984C124.246 306.318 132.24 298.689 140.377 291.21C158.985 274.132 175.567 255.374 188.844 233.599C198.824 217.263 206.36 200.066 210.006 181.183C210.286 179.754 210.128 177.548 209.248 176.702C201.275 169.071 197.493 159.499 196.892 148.608C196.715 145.25 196.851 141.504 198.148 138.528C200.087 134.095 202.974 130.024 205.862 126.111C208.47 122.615 209.186 119.23 206.831 115.13Z" fill="#3875FB"/>
<path d="M184.999 45.7142L185.04 46.4077L184.603 46.0678C184.722 45.9356 184.854 45.8169 184.999 45.7142Z" fill="white"/>
</svg>
