<?xml version="1.0" encoding="UTF-8"?>
<svg fill="none" viewBox="0 0 18 18" xmlns="http://www.w3.org/2000/svg">
<path d="m6 18c-1.6667 0-3.0833-0.5833-4.25-1.75-1.1667-1.1667-1.75-2.5833-1.75-4.25v-6c0-1.6667 0.58333-3.0833 1.75-4.25 1.1667-1.1667 2.5833-1.75 4.25-1.75h6c1.6667 0 3.0833 0.58333 4.25 1.75 1.1667 1.1667 1.75 2.5833 1.75 4.25v6c0 1.6667-0.5833 3.0833-1.75 4.25s-2.5833 1.75-4.25 1.75h-6zm0-2h6c1.1 0 2.0417-0.3917 2.825-1.175s1.175-1.725 1.175-2.825v-6c0-1.1-0.3917-2.0417-1.175-2.825s-1.725-1.175-2.825-1.175h-6c-1.1 0-2.0417 0.39167-2.825 1.175s-1.175 1.725-1.175 2.825v6c0 1.1 0.39167 2.0417 1.175 2.825s1.725 1.175 2.825 1.175z" fill="#000"/>
</svg>
